<?xml version="1.0" standalone="no"?>
<!DOCTYPE svg PUBLIC "-//W3C//DTD SVG 20010904//EN"
 "http://www.w3.org/TR/2001/REC-SVG-20010904/DTD/svg10.dtd">
<svg version="1.0" xmlns="http://www.w3.org/2000/svg"
 width="24" height="24" viewBox="0 0 24 24"
 preserveAspectRatio="xMidYMid meet">

<g transform="translate(0.000000,512.000000) scale(0.100000,-0.100000)"
fill="#000000" stroke="none">
<path d="M1886 4355 c3 -25 2 -35 -4 -27 -5 8 -7 -17 -4 -66 5 -83 -22 -244
-55 -327 -50 -130 -158 -446 -183 -540 -33 -121 -39 -241 -19 -350 10 -54 59
-157 81 -171 22 -14 17 8 -16 70 -48 91 -60 157 -53 296 7 134 20 182 149 545
47 132 91 272 98 310 23 127 30 136 25 30 -2 -55 -7 -116 -10 -135 -4 -27 -1
-22 15 20 11 30 25 59 30 64 15 15 12 166 -5 223 -8 28 -24 62 -35 75 l-20 23
6 -40z"/>
<path d="M1962 4120 c0 -14 2 -19 5 -12 2 6 2 18 0 25 -3 6 -5 1 -5 -13z"/>
<path d="M1951 4024 c0 -11 3 -14 6 -6 3 7 2 16 -1 19 -3 4 -6 -2 -5 -13z"/>
<path d="M2597 3752 c-3 -31 -4 -75 -2 -97 4 -55 -10 -127 -57 -278 -22 -71
-37 -131 -35 -134 3 -2 11 13 18 34 6 21 33 83 59 139 71 150 86 244 54 337
-9 26 -19 49 -24 52 -4 2 -10 -21 -13 -53z"/>
<path d="M1856 3619 c-8 -42 0 -50 9 -9 4 17 5 34 2 36 -2 3 -7 -10 -11 -27z"/>
<path d="M1827 3503 c-44 -179 -49 -226 -37 -355 6 -68 13 -142 16 -166 6 -51
35 -122 58 -141 9 -7 16 -17 16 -22 0 -14 -104 -11 -120 3 -8 7 -7 4 2 -7 23
-25 133 -34 172 -13 l28 14 -36 25 c-69 47 -115 170 -130 349 -6 74 17 243 45
328 6 18 9 37 7 43 -2 6 -11 -20 -21 -58z"/>
<path d="M2561 3543 c-1 -7 -36 -95 -78 -195 l-77 -183 -3 -110 c-3 -100 -2
-113 19 -149 28 -48 55 -67 67 -48 5 9 -1 24 -20 45 -42 46 -52 88 -46 186 4
77 12 104 76 264 40 99 70 184 67 190 -3 9 -5 9 -5 0z"/>
<path d="M2532 3015 c0 -16 2 -22 5 -12 2 9 2 23 0 30 -3 6 -5 -1 -5 -18z"/>
<path d="M2518 2975 c-6 -11 -4 -38 7 -77 5 -21 4 -28 -6 -28 -8 0 4 -12 25
-25 32 -19 37 -25 23 -31 -10 -3 -27 -4 -40 -1 -21 6 -21 6 -3 -8 23 -18 75
-19 109 -4 l24 11 -43 40 c-26 24 -49 56 -55 79 -7 21 -15 36 -20 34 -4 -3 -9
0 -11 7 -3 7 -7 8 -10 3z"/>
<path d="M2668 2733 c6 -2 18 -2 25 0 6 3 1 5 -13 5 -14 0 -19 -2 -12 -5z"/>
<path d="M3195 2730 l-480 -5 452 -3 452 -2 34 -30 c19 -16 37 -30 40 -30 3 0
7 18 9 40 3 32 0 40 -12 38 -8 -2 -231 -5 -495 -8z"/>
<path d="M942 2725 c7 -7 700 -6 707 0 2 3 -157 5 -354 5 -197 0 -356 -2 -353
-5z"/>
<path d="M2113 2723 c54 -2 139 -2 190 0 51 1 7 3 -98 3 -104 0 -146 -2 -92
-3z"/>
<path d="M3935 2721 c-16 -3 26 -6 95 -6 105 0 137 -4 199 -24 150 -49 288
-168 384 -330 63 -106 70 -134 71 -266 0 -173 -50 -305 -162 -426 -130 -140
-264 -200 -451 -200 -189 0 -322 54 -456 183 -43 42 -80 76 -80 75 -72 -170
-156 -321 -227 -410 l-57 -72 102 -6 c56 -4 240 -7 408 -8 169 0 320 -4 337
-7 19 -4 32 -14 35 -26 5 -16 12 -20 35 -16 24 3 29 1 24 -11 -23 -64 -144
-196 -253 -276 -177 -131 -481 -229 -782 -254 -203 -17 -1513 -14 -1662 3
-344 41 -617 144 -795 300 l-35 31 35 -38 c152 -167 507 -296 900 -327 186
-15 1536 -7 1659 9 200 27 393 83 558 163 70 34 199 126 244 175 44 46 137
189 147 225 6 18 13 41 17 52 8 17 -2 18 -271 12 -153 -3 -363 -3 -466 1
l-187 8 48 62 c27 35 81 127 121 205 39 79 76 147 81 153 6 6 27 -8 57 -37
268 -258 660 -262 912 -9 74 74 132 166 159 251 35 111 30 291 -12 416 -66
195 -257 374 -448 419 -64 15 -227 18 -284 6z"/>
<path d="M894 2525 c6 -276 46 -481 140 -735 26 -69 48 -131 48 -137 1 -7 6
-13 11 -13 6 0 8 -3 4 -6 -7 -7 30 -86 45 -95 5 -3 9 -9 9 -13 -2 -8 28 -66
34 -66 7 0 -21 73 -53 136 -137 273 -235 715 -218 990 5 82 3 104 -10 120 -14
17 -15 0 -10 -181z"/>
<path d="M3922 2460 c-111 -40 -206 -137 -237 -244 -31 -103 -14 -250 39 -340
46 -79 155 -150 246 -161 l45 -5 -50 14 c-27 8 -52 15 -55 16 -3 0 -15 7 -25
15 -116 88 -124 96 -160 169 -36 71 -37 77 -33 163 3 69 9 100 30 145 37 80
107 152 187 191 62 30 72 32 171 32 124 0 171 -18 251 -96 90 -88 135 -240
106 -356 -19 -73 -14 -82 7 -12 20 66 20 151 1 215 -31 104 -156 229 -258 259
-71 21 -199 19 -265 -5z"/>
<path d="M4385 1884 c-9 -15 -12 -23 -6 -20 11 7 35 46 28 46 -3 0 -12 -12
-22 -26z"/>
<path d="M4118 1713 c7 -3 16 -2 19 1 4 3 -2 6 -13 5 -11 0 -14 -3 -6 -6z"/>
<path d="M4048 1703 c6 -2 18 -2 25 0 6 3 1 5 -13 5 -14 0 -19 -2 -12 -5z"/>
<path d="M1236 1380 c15 -22 28 -40 31 -40 2 0 -6 18 -17 40 -11 22 -25 40
-30 40 -6 0 2 -18 16 -40z"/>
<path d="M1290 1296 c0 -2 8 -10 18 -17 15 -13 16 -12 3 4 -13 16 -21 21 -21
13z"/>
<path d="M480 1235 c0 -29 105 -183 117 -172 6 6 -35 95 -58 128 -19 27 -59
57 -59 44z"/>
<path d="M560 1232 c8 -5 150 -5 315 -2 l300 6 -315 2 c-173 1 -308 -2 -300
-6z"/>
</g>
</svg>
