<svg width="24" height="24" viewBox="0 0 24 24" fill="none" xmlns="http://www.w3.org/2000/svg">
<path d="M20.2161 6.41502L20.0841 5.74902C19.9651 5.15102 19.6961 4.58602 19.0831 4.37002C18.8861 4.30102 18.6631 4.27202 18.5131 4.12902C18.3611 3.98602 18.3171 3.76302 18.2821 3.55702C18.2171 3.17902 18.1571 2.80102 18.0901 2.42402C18.0331 2.09902 17.9881 1.73402 17.8401 1.43702C17.6451 1.03702 17.2431 0.803022 16.8441 0.649022C16.6393 0.572451 16.4303 0.507678 16.2181 0.455022C15.2181 0.192022 14.1681 0.0950219 13.1411 0.0390219C11.9078 -0.0287843 10.6713 -0.00806443 9.44105 0.101022C8.52605 0.184022 7.56105 0.285022 6.69105 0.601022C6.37305 0.717022 6.04505 0.857022 5.80305 1.10202C5.50605 1.40402 5.41005 1.87202 5.62605 2.24802C5.78005 2.51502 6.04105 2.70402 6.31805 2.82802C6.67805 2.99002 7.05505 3.11202 7.44105 3.19402C8.51605 3.43202 9.63005 3.52502 10.7281 3.56402C11.9461 3.61402 13.1651 3.57402 14.3781 3.44602C14.6771 3.41302 14.9761 3.37302 15.2741 3.32702C15.6261 3.27302 15.8521 2.81402 15.7481 2.49302C15.6241 2.11002 15.2911 1.96202 14.9141 2.02002C14.4481 2.09402 13.9541 2.12802 13.5321 2.16602C12.3551 2.24602 11.1741 2.24802 9.99605 2.17202C9.60952 2.14644 9.22372 2.11076 8.83905 2.06502C8.75305 2.05502 8.65905 2.04002 8.58105 2.02902C8.33805 1.99302 8.09705 1.94902 7.85705 1.89902C7.74605 1.87202 7.74605 1.71402 7.85705 1.68702H7.86205C8.13905 1.62702 8.41905 1.57902 8.70005 1.54002H8.70205C8.83305 1.53102 8.96505 1.50802 9.09605 1.49202C10.234 1.37392 11.3787 1.33382 12.5221 1.37202C13.1961 1.39102 13.8691 1.43902 14.5391 1.51602L14.7671 1.54702C15.0341 1.58702 15.3001 1.63502 15.5651 1.69202C15.9571 1.77702 16.4601 1.80502 16.6351 2.23402C16.6901 2.37102 16.7151 2.52202 16.7461 2.66502L17.0651 4.14902C17.0718 4.18084 17.072 4.21371 17.0655 4.24559C17.059 4.27747 17.046 4.30767 17.0273 4.33431C17.0087 4.36095 16.9847 4.38346 16.957 4.40044C16.9292 4.41743 16.8983 4.42852 16.8661 4.43302H16.8631C16.8261 4.43902 16.7881 4.44302 16.7511 4.44802C15.1781 4.64871 13.5938 4.74725 12.0081 4.74302C10.4369 4.7414 8.86736 4.63986 7.30905 4.43902C7.16905 4.42202 7.01605 4.39702 6.89205 4.37902C6.56605 4.33102 6.24305 4.27102 5.91905 4.21802C5.52605 4.15302 5.15105 4.18602 4.79605 4.37902C4.50605 4.53902 4.26905 4.78302 4.12105 5.08002C3.96705 5.39602 3.92205 5.74002 3.85405 6.08002C3.78505 6.42002 3.67805 6.78702 3.71905 7.13602C3.80605 7.88902 4.33205 8.50102 5.08905 8.63802C8.83252 9.30608 12.6526 9.43271 16.4321 9.01402C16.5039 9.00585 16.5766 9.0139 16.6449 9.03757C16.7131 9.06124 16.7752 9.09993 16.8266 9.15079C16.8779 9.20165 16.9172 9.26339 16.9415 9.33144C16.9658 9.3995 16.9745 9.47214 16.9671 9.54402L16.8961 10.241L15.8781 20.148C15.8371 20.558 15.8311 20.98 15.7531 21.385C15.6311 22.022 15.2001 22.413 14.5711 22.556C13.9941 22.687 13.4061 22.756 12.8151 22.761C12.1591 22.765 11.5051 22.736 10.8491 22.739C10.1501 22.743 9.29305 22.679 8.75405 22.159C8.27905 21.701 8.21405 20.985 8.14905 20.366L7.41805 13.353L7.09605 10.259C7.05905 9.90802 6.81005 9.56402 6.41805 9.58102C6.08205 9.59602 5.70005 9.88102 5.74005 10.26L5.96805 12.445L6.91705 21.557C7.06405 22.901 8.09105 23.625 9.36305 23.829C10.1051 23.949 10.8661 23.973 11.6201 23.985C12.5861 24.001 13.5621 24.038 14.5121 23.863C15.9201 23.605 16.9771 22.665 17.1281 21.206C17.4681 17.874 17.8111 14.543 18.1521 11.211L18.3671 9.12402C18.3776 9.02053 18.4213 8.92321 18.4915 8.84647C18.5618 8.76974 18.6549 8.71769 18.7571 8.69802C19.1591 8.62002 19.5441 8.48602 19.8311 8.18002C20.2861 7.69202 20.3771 7.05602 20.2161 6.41402V6.41502ZM18.7381 7.18702C18.5931 7.32402 18.3751 7.38802 18.1601 7.42002C15.7441 7.77902 13.2941 7.96002 10.8521 7.88002C9.10405 7.82002 7.37505 7.62602 5.64505 7.38202C5.47505 7.35802 5.29205 7.32702 5.17505 7.20202C4.95505 6.96602 5.06405 6.49202 5.12105 6.20702C5.17305 5.94702 5.27305 5.59802 5.58405 5.56102C6.06805 5.50402 6.63005 5.70902 7.11005 5.78102C7.68705 5.86902 8.26605 5.94002 8.84705 5.99302C11.3271 6.21902 13.8491 6.18302 16.3191 5.85302C16.7691 5.79302 17.2181 5.72302 17.6641 5.64302C18.0631 5.57102 18.5041 5.43702 18.7441 5.84902C18.9101 6.13002 18.9321 6.50602 18.9061 6.82302C18.8982 6.96146 18.8377 7.09166 18.7371 7.18702H18.7381ZM12.5791 11.087C11.7171 11.457 10.7391 11.875 9.47005 11.875C8.93966 11.8737 8.41188 11.8007 7.90105 11.658L8.77805 20.662C8.84305 21.442 9.49505 22.042 10.2781 22.042C10.2781 22.042 11.5211 22.107 11.9361 22.107C12.3831 22.107 13.7221 22.042 13.7221 22.042C14.5051 22.042 15.1561 21.442 15.2211 20.662L16.1611 10.712C15.737 10.5587 15.29 10.4782 14.8391 10.474C14.0131 10.474 13.3481 10.758 12.5791 11.087V11.087Z" fill="white"/>
</svg>
