<?xml version="1.0" encoding="iso-8859-1"?>
<!-- Uploaded to: SVG Repo, www.svgrepo.com, Generator: SVG Repo Mixer Tools -->
<!DOCTYPE svg PUBLIC "-//W3C//DTD SVG 1.1//EN" "http://www.w3.org/Graphics/SVG/1.1/DTD/svg11.dtd">
<svg fill="#FFFFFF" version="1.1" id="Capa_1" xmlns="http://www.w3.org/2000/svg" xmlns:xlink="http://www.w3.org/1999/xlink" 
	 width="28px" height="28px" viewBox="0 0 564.446 564.447"
	 xml:space="preserve">
<g>
	<g>
		<path d="M282.219,0C126.354,0,0,126.357,0,282.223c0,155.872,126.354,282.224,282.218,282.224
			c155.872,0,282.228-126.352,282.228-282.224C564.446,126.357,438.096,0,282.219,0z M282.219,531.591
			c-137.5,0-249.366-111.863-249.366-249.368c0-137.5,111.871-249.365,249.366-249.365c137.499,0,249.368,111.871,249.368,249.365
			C531.592,419.728,419.718,531.591,282.219,531.591z"/>
		<path d="M420.019,166.997c3.221-0.042,6.617-1.691,10.175-4.945c3.511-3.219,5.422-6.396,5.748-9.515
			c0.326-3.123-0.694-5.965-3.019-8.515c-2.341-2.551-5.096-3.806-8.285-3.765c-3.18,0.044-6.524,1.675-10.056,4.906
			c-3.47,3.174-5.375,6.39-5.696,9.634c-0.326,3.244,0.652,6.098,2.91,8.567C414.048,165.837,416.787,167.046,420.019,166.997z"/>
		<path d="M221.316,112.919c2.789,1.68,5.792,2.024,8.981,1.038c3.203-0.991,5.468-2.954,6.809-5.89
			c1.336-2.938,1.29-6.708-0.122-11.309c-1.416-4.552-3.457-7.643-6.146-9.264c-2.692-1.623-5.683-1.926-8.986-0.901
			c-3.309,1.018-5.621,2.972-6.947,5.87c-1.325,2.889-1.271,6.623,0.127,11.192C216.428,108.153,218.522,111.239,221.316,112.919z"
			/>
		<path d="M282.219,166.011c50.528,0,93.506,32.259,109.507,77.299h130.509C503.552,127.674,403.04,39.077,282.213,39.077
			c-120.824,0-221.326,88.605-240.006,204.233h130.506C188.717,198.27,231.693,166.011,282.219,166.011z M457.487,163.743
			l4.029,7.104l-15.783,28.49l24.161-13.686l3.853,6.789l-36.175,20.487l-4.152-7.327l15.337-27.944l-23.591,13.362l-3.843-6.783
			L457.487,163.743z M417.668,133.173c2.206-0.732,4.474-1.063,6.824-0.997c2.341,0.075,4.475,0.551,6.385,1.437
			c2.563,1.173,4.977,3.001,7.265,5.499c4.133,4.518,6.049,9.417,5.728,14.698c-0.321,5.276-2.973,10.201-7.964,14.773
			c-4.961,4.533-10.056,6.734-15.327,6.602c-5.251-0.134-9.942-2.452-14.069-6.959c-4.174-4.554-6.1-9.453-5.784-14.69
			c0.316-5.235,2.921-10.092,7.799-14.561C411.641,136.118,414.7,134.181,417.668,133.173z M403.428,108.777l-3.604,6.045
			l-19.273-11.485l-4.717,7.922l17.932,10.68l-3.583,6.017l-17.938-10.685l-5.789,9.725l19.957,11.884l-3.594,6.017l-27.154-16.182
			L376.942,93L403.428,108.777z M327.258,75.029l11.972,3.821l-1.435,29.308l15.731-24.747l11.998,3.827l-12.65,39.604l-7.42-2.372
			l9.952-31.177l-17.818,28.671l-7.699-2.454l2.112-33.681l-9.942,31.172l-7.431-2.372L327.258,75.029z M255.846,71.877
			l7.262,28.322l6.592-28.808l9.979-0.345l8.301,28.77l5.361-29.248l8.445-0.295l-8.642,41.899l-8.904,0.313l-9.359-30.771
			l-7.164,31.354l-9.093,0.318L247.246,72.18L255.846,71.877z M205.525,95.728c0.277-2.307,0.95-4.495,2.009-6.592
			c1.067-2.092,2.418-3.811,4.037-5.163c2.146-1.81,4.847-3.213,8.07-4.215c5.854-1.81,11.097-1.437,15.736,1.103
			c4.629,2.545,7.949,7.053,9.947,13.515c1.983,6.411,1.794,11.967-0.572,16.666c-2.369,4.702-6.473,7.953-12.3,9.755
			c-5.901,1.826-11.156,1.473-15.765-1.048c-4.595-2.53-7.868-6.952-9.831-13.277C205.611,102.431,205.171,98.85,205.525,95.728z
			 M175.192,100.484l16.687,29.886l18.224-10.175l3.42,6.112l-25.554,14.269l-20.106-36.003L175.192,100.484z M124.355,218.589
			l-37.218-18.543l12.705-25.507l6.302,3.138l-8.968,17.996l8.808,4.392l7.742-15.532l6.299,3.133l-7.742,15.537l15.812,7.878
			L124.355,218.589z M150.026,177.024c-3.85,4.841-8.384,7.514-13.605,8.019c-5.225,0.502-10.426-1.3-15.602-5.424
			c-3.314-2.636-5.698-5.346-7.161-8.13c-1.067-2.058-1.75-4.251-2.058-6.576c-0.293-2.325-0.153-4.505,0.419-6.537
			c0.759-2.708,2.183-5.388,4.301-8.039c3.811-4.792,8.354-7.443,13.616-7.954c5.261-0.507,10.535,1.344,15.832,5.559
			c5.25,4.184,8.226,8.88,8.919,14.092C155.38,167.249,153.822,172.248,150.026,177.024z M137.606,128.195l6.47-5.344l21.797,26.39
			l16.093-13.3l4.458,5.398l-22.561,18.644L137.606,128.195z"/>
		<path d="M140.206,154.606c-3.723-2.965-7.159-4.357-10.292-4.184c-3.13,0.176-5.782,1.618-7.933,4.321
			c-2.154,2.71-2.964,5.626-2.423,8.766c0.541,3.133,2.677,6.188,6.426,9.168c3.679,2.931,7.153,4.306,10.403,4.114
			c3.251-0.187,5.923-1.59,8.008-4.21c2.089-2.615,2.848-5.52,2.307-8.696C146.146,160.703,143.986,157.607,140.206,154.606z"/>
		<path d="M176.178,402.853c0.078-1.248-0.336-2.48-1.227-3.703c-0.461-0.59-2.025-2.195-4.691-4.795l-5.139-5.012l-8.076,8.274
			l4.868,4.748c3.161,3.081,5.261,4.873,6.304,5.38c1.046,0.498,2.107,0.638,3.192,0.415c1.082-0.218,2.1-0.818,3.055-1.792
			C175.536,405.266,176.108,404.101,176.178,402.853z"/>
		<path d="M282.219,398.431c-50.526,0-93.507-32.266-109.505-77.305H42.208c18.68,115.643,119.192,204.24,240.019,204.24
			c120.824,0,221.332-88.598,240.019-204.24H391.73C375.725,366.166,332.752,398.431,282.219,398.431z M165.053,419.408
			c-0.044,1.895-0.521,4.877-1.421,8.947l-2.227,10.242l-7.876-7.679l2.169-11.739c0.785-4.184,1.194-6.907,1.214-8.176
			s-0.197-2.356-0.652-3.288c-0.461-0.922-1.442-2.123-2.959-3.599l-1.336-1.306l-13.282,13.604l-6.579-6.432l31.825-32.581
			l13.844,13.521c3.482,3.402,5.727,6.162,6.739,8.29c1.002,2.123,1.245,4.401,0.743,6.825c-0.521,2.423-1.714,4.598-3.597,6.519
			c-2.384,2.444-5.08,3.765-8.07,3.951c-2.991,0.191-6.118-0.9-9.391-3.283C164.81,415.446,165.089,417.512,165.053,419.408z
			 M219.62,434.517l-8.288-3.987c0.759-2.247,0.805-4.127,0.153-5.645c-0.658-1.512-2.125-2.884-4.407-4.101
			c-2.353-1.264-4.463-1.771-6.31-1.522c-1.193,0.166-2.068,0.771-2.62,1.802c-0.512,0.958-0.546,1.979-0.106,3.086
			c0.557,1.409,2.563,3.636,6.009,6.681c3.446,3.044,5.843,5.571,7.195,7.575c1.356,2.015,2.105,4.163,2.252,6.468
			c0.15,2.299-0.466,4.712-1.828,7.249c-1.23,2.299-3.029,4.106-5.383,5.432c-2.354,1.326-4.968,1.844-7.827,1.569
			c-2.858-0.28-6.033-1.347-9.522-3.211c-5.07-2.729-8.334-5.991-9.805-9.797c-1.458-3.801-1.25-8.088,0.627-12.862l8.292,3.459
			c-0.945,2.899-1.022,5.364-0.238,7.379c0.784,2.024,2.413,3.692,4.877,5.007c2.605,1.403,4.873,1.906,6.781,1.513
			c1.916-0.394,3.272-1.336,4.067-2.807c0.51-0.953,0.663-1.906,0.466-2.879c-0.2-0.963-0.857-2.062-1.983-3.304
			c-0.774-0.834-2.623-2.573-5.551-5.225c-3.765-3.413-6.103-6.364-7.014-8.876c-1.279-3.526-1.072-6.881,0.635-10.051
			c1.092-2.05,2.7-3.65,4.811-4.805c2.11-1.16,4.513-1.626,7.189-1.378c2.677,0.229,5.562,1.181,8.647,2.833
			c5.039,2.708,8.241,5.836,9.603,9.414C221.715,427.102,221.471,430.768,219.62,434.517z M262.399,445.625l-9.062-1.632
			c0.132-2.371-0.324-4.204-1.356-5.488c-1.036-1.279-2.817-2.206-5.347-2.775c-2.602-0.591-4.766-0.519-6.483,0.223
			c-1.108,0.476-1.794,1.284-2.048,2.434c-0.238,1.056,0,2.056,0.722,2.998c0.917,1.212,3.441,2.816,7.576,4.836
			c4.132,2.01,7.123,3.806,8.961,5.38c1.841,1.574,3.141,3.444,3.889,5.629c0.746,2.175,0.811,4.671,0.173,7.473
			c-0.572,2.542-1.823,4.769-3.739,6.674c-1.913,1.911-4.29,3.107-7.114,3.604c-2.833,0.497-6.178,0.311-10.038-0.56
			c-5.621-1.264-9.634-3.536-12.057-6.814c-2.429-3.272-3.374-7.467-2.837-12.562l8.924,1.118c-0.132,3.045,0.445,5.437,1.74,7.177
			c1.292,1.74,3.309,2.915,6.038,3.531c2.892,0.652,5.202,0.539,6.941-0.362c1.745-0.891,2.793-2.154,3.171-3.79
			c0.238-1.046,0.127-2.015-0.323-2.89c-0.451-0.88-1.38-1.761-2.789-2.651c-0.971-0.601-3.213-1.792-6.739-3.562
			c-4.539-2.278-7.588-4.505-9.137-6.68c-2.175-3.065-2.863-6.349-2.074-9.864c0.51-2.263,1.628-4.235,3.358-5.908
			c1.727-1.683,3.912-2.766,6.563-3.252c2.641-0.486,5.673-0.342,9.088,0.425c5.579,1.258,9.497,3.428,11.767,6.514
			C262.436,437.935,263.173,441.502,262.399,445.625z M303.677,450.217l18.775-3.024l1.223,7.612l-18.771,3.019l3.081,19.112
			l-9.082,1.455l-7.244-44.962l30.825-4.971l1.223,7.612l-21.748,3.5L303.677,450.217z M346.811,468.34l-18.548-41.601
			l30.851-13.748l3.138,7.037l-22.441,10.004l4.111,9.223l20.878-9.311l3.123,7.017l-20.884,9.31l5.054,11.319l23.239-10.356
			l3.123,7.007L346.811,468.34z M394.118,444.319l-28.926-35.185l26.082-21.448l4.894,5.955l-18.982,15.602l6.41,7.804l17.668-14.52
			l4.872,5.924l-17.667,14.529l7.876,9.569L416,416.394l4.873,5.923L394.118,444.319z M405.613,368.879
			c2.144-3.133,4.023-5.344,5.628-6.649c2.165-1.76,4.614-2.848,7.349-3.282c2.739-0.436,5.592-0.229,8.544,0.595
			c2.961,0.829,6.197,2.46,9.714,4.878c3.091,2.118,5.488,4.335,7.188,6.644c2.092,2.817,3.381,5.676,3.868,8.58
			c0.372,2.196,0.149,4.655-0.668,7.39c-0.622,2.035-1.896,4.453-3.822,7.249l-9.817,14.256l-37.521-25.818L405.613,368.879z"/>
		<path d="M439.178,386.123c0.544-1.435,0.725-2.807,0.549-4.122c-0.176-1.32-0.927-2.807-2.258-4.484
			c-1.325-1.662-3.438-3.495-6.343-5.499c-2.9-1.988-5.303-3.262-7.203-3.821c-1.905-0.555-3.614-0.673-5.116-0.353
			c-1.501,0.321-2.899,1.088-4.173,2.294c-0.974,0.896-2.522,2.885-4.64,5.971l-2.346,3.407l24.86,17.104l3.889-5.649
			C437.842,388.846,438.779,387.23,439.178,386.123z"/>
		<polygon points="458.274,304.738 467.605,314.074 476.926,304.738 490.12,304.738 490.12,291.549 499.451,282.218 490.12,272.892 
			490.12,259.699 476.926,259.699 467.605,250.368 458.274,259.699 445.081,259.699 445.081,272.892 435.75,282.218 
			445.081,291.549 445.081,304.738 		"/>
		<polygon points="83.793,304.738 93.126,314.074 102.447,304.738 115.638,304.738 115.638,291.549 124.972,282.218 
			115.638,272.892 115.638,259.699 102.447,259.699 93.126,250.368 83.793,259.699 70.602,259.699 70.602,272.892 61.268,282.218 
			70.602,291.549 70.602,304.738 		"/>
		<path d="M364.25,347.845c0-79.758-64.602-144.638-144.001-144.638v27.727c64.118,0,116.277,52.444,116.277,116.911H364.25z"/>
		<path d="M239.382,309.269c10.602,0,19.198,8.601,19.198,19.2c0,10.604-8.596,19.2-19.198,19.2c-10.604,0-19.2-8.596-19.2-19.2
			C220.182,317.87,228.778,309.269,239.382,309.269z"/>
		<path d="M287.56,347.809h27.716c0-52.636-42.652-95.458-95.067-95.458v27.721c17.986,0,34.89,7.024,47.6,19.809
			C280.538,312.666,287.56,329.686,287.56,347.809z"/>
	</g>
</g>
</svg>